
<svg width="687px" height="400px" viewBox="0 0 687 400" version="1.1" xmlns="http://www.w3.org/2000/svg" xmlns:xlink="http://www.w3.org/1999/xlink">
    <defs></defs>
    <g id="source-paths---vectors-to-modify" stroke="none" stroke-width="1" fill="none" fill-rule="evenodd">
        <g id="paths" transform="translate(-1907.000000, -3708.000000)" fill="#000000">
            <path d="M1942.14928,3974.07471 C1938.99646,3982.37147 1936.17807,3990.78773 1933.92111,3999.35388 C1930.42959,4012.60791 1936.1307,4028.57426 1948.54332,4035.28577 C1971.11017,4047.48909 1994.78146,4036.18516 2013.68003,4022.53376 C2017.89558,4027.83466 2023.5281,4032.24254 2030.22335,4033.71395 C2031.41405,4033.97627 2032.57365,4034.16789 2033.71415,4034.31708 C2031.81001,4044.86657 2032.18617,4055.78161 2037.86607,4065.2917 C2047.23121,4080.97098 2068.49776,4088.38108 2084.87986,4078.79462 C2091.47895,4074.93331 2095.9144,4068.19988 2100.52238,4062.27534 C2103.13924,4058.9111 2105.73419,4055.53201 2108.3157,4052.14232 C2112.01014,4050.50899 2115.37085,4048.28242 2117.56206,4045.69667 C2118.32781,4044.79303 2119.08367,4043.88374 2119.84236,4042.97516 C2119.99791,4043.30677 2120.15135,4043.6398 2120.32317,4043.96717 C2122.90327,4050.0798 2127.30902,4055.99514 2133.34174,4059.18262 C2143.35668,4064.47362 2155.8895,4064.80665 2165.62161,4059.14797 C2166.3202,4061.17585 2167.17151,4063.01352 2168.12676,4064.49554 C2171.93646,4070.40382 2176.83645,4074.76856 2183.3415,4077.51341 C2189.66412,4080.18189 2197.34502,4081.28987 2204.05936,4079.11704 C2211.41642,4076.73634 2219.82419,4071.89998 2223.0753,4064.49554 C2225.19863,4059.65706 2227.21802,4054.7811 2229.15822,4049.87616 C2233.31792,4039.7297 2237.38569,4029.54789 2241.37286,4019.33497 C2241.46549,4019.28336 2241.55528,4019.22467 2241.64791,4019.17093 C2245.92498,4028.95678 2253.41426,4038.00375 2264.40708,4040.08677 C2271.65314,4041.4592 2278.20273,4041.40405 2285.12424,4038.48243 C2288.0013,4037.2691 2290.53191,4035.77082 2292.79877,4033.96072 C2292.16665,4037.58304 2291.53524,4041.20465 2290.90383,4044.82697 C2289.55686,4052.55101 2288.20989,4060.27575 2286.86221,4068.00049 C2285.59161,4075.29321 2285.51878,4081.7325 2288.46656,4088.71764 C2291.04595,4094.82955 2295.45241,4100.74561 2301.48513,4103.93238 C2314.1933,4110.64742 2329.52965,4109.08833 2340.04308,4098.95743 C2352.41256,4087.03764 2358.80094,4071.51745 2364.70215,4055.75262 C2365.91406,4052.51495 2367.11326,4049.27232 2368.31881,4046.03182 C2378.11244,4052.00798 2390.54132,4052.30636 2400.77686,4046.53879 C2405.13807,4044.08101 2408.9414,4041.08728 2412.3318,4037.71526 C2412.86423,4038.97172 2413.49847,4040.20061 2414.25857,4041.39556 C2418.06897,4047.30455 2422.96896,4051.66858 2429.47472,4054.41414 C2443.05895,4060.14635 2462.28772,4055.69676 2469.20711,4041.39556 C2471.70024,4036.24314 2473.94235,4030.94648 2476.03175,4025.57133 C2475.95892,4027.06042 2475.89175,4028.54951 2475.81609,4030.03789 C2475.61528,4033.95718 2475.48377,4037.91183 2475.16629,4041.8396 C2474.22448,4046.47162 2474.23437,4051.2401 2475.57144,4056.09767 C2477.60427,4063.47807 2483.31033,4071.47644 2490.19436,4075.11361 C2505.78596,4083.35098 2524.34231,4078.813 2533.72725,4063.69867 C2539.96078,4053.65969 2547.35532,4044.28677 2554.47057,4034.87072 C2559.61026,4028.06941 2564.7846,4021.29568 2569.95257,4014.51629 C2574.7359,4008.24317 2580.23054,4002.10085 2584.28559,3995.32641 C2593.51074,3979.91582 2596.10356,3959.13856 2589.46276,3942.25938 C2585.7068,3932.71394 2581.0062,3923.92859 2573.32459,3916.84658 C2567.75146,3911.7083 2561.63672,3907.56911 2554.85451,3904.55982 C2554.91814,3904.35124 2554.97966,3904.14194 2555.04329,3903.93265 C2556.9241,3897.76771 2558.83672,3891.5865 2561.07531,3885.53257 C2561.86652,3883.84691 2562.65773,3882.16055 2563.44894,3880.4756 C2567.15823,3872.57409 2569.05247,3864.65773 2566.65692,3855.95724 C2564.62409,3848.57684 2558.91804,3840.57846 2552.03471,3836.942 C2539.38806,3830.26019 2523.73211,3831.95079 2513.73697,3841.63058 C2513.66131,3841.18159 2513.5807,3840.73331 2513.4803,3840.28432 C2513.28868,3836.04968 2512.02939,3832.10635 2509.70455,3828.45362 C2505.89485,3822.54535 2500.99415,3818.1806 2494.4891,3815.43576 C2480.54073,3809.5494 2462.17034,3814.36879 2454.75671,3828.45362 C2449.67642,3838.10442 2444.59682,3847.75522 2439.51653,3857.40602 C2441.07562,3844.15482 2442.52228,3830.89019 2443.8247,3817.61071 C2444.54379,3810.28122 2439.82269,3799.99193 2434.50552,3795.11173 C2429.24916,3790.28669 2423.33805,3787.31487 2416.23624,3786.36033 C2409.45261,3785.44891 2401.87353,3786.31578 2395.94757,3790.13679 C2388.62586,3794.85648 2384.39263,3801.00941 2381.32466,3809.15203 C2375.048,3825.81201 2369.01315,3842.56321 2363.21235,3859.3936 C2363.01578,3859.30592 2362.83124,3859.20622 2362.63114,3859.12208 C2361.92831,3858.82511 2361.20568,3858.55148 2360.47175,3858.29552 L2363.54184,3844.67664 C2367.05386,3829.09352 2360.07013,3813.4496 2345.11843,3807.14041 C2338.79651,3804.47193 2331.1149,3803.36395 2324.40127,3805.53678 C2322.68309,3806.09253 2320.9338,3806.78122 2319.21491,3807.59223 C2326.724,3787.82962 2334.47066,3768.15752 2342.57792,3748.63107 C2345.39843,3741.83895 2343.22419,3730.09169 2339.36995,3724.11412 C2335.56096,3718.20443 2330.66026,3713.84039 2324.15521,3711.09484 C2310.45361,3705.31313 2291.50201,3709.8808 2284.42212,3724.11412 C2278.23172,3736.55997 2271.67859,3748.77248 2264.8193,3760.79621 C2263.44264,3759.27601 2261.92385,3757.8746 2260.28345,3756.60682 C2255.70941,3753.07359 2250.95578,3751.11218 2245.23276,3750.34359 C2244.66427,3750.19016 2244.09508,3750.07703 2243.52589,3749.98581 C2245.4569,3744.01744 2245.72841,3737.35684 2244.09861,3731.43937 C2242.0665,3724.05826 2236.35973,3716.05988 2229.47641,3712.42342 C2222.09177,3708.52181 2213.14662,3706.56676 2204.95875,3709.21615 C2196.73906,3711.87615 2190.85694,3716.71039 2185.94281,3723.83836 C2176.00776,3738.24916 2166.65111,3753.01278 2157.82121,3768.07267 C2156.32011,3768.12216 2154.8197,3768.30812 2153.3193,3768.64469 C2148.50132,3769.29166 2144.15072,3770.86701 2140.33608,3773.28731 C2140.26184,3767.33378 2139.33557,3761.3251 2136.02366,3756.18823 C2130.80265,3748.08875 2123.94619,3743.96158 2115.25277,3740.57825 C2107.30601,3737.48623 2098.18339,3737.9133 2090.00754,3739.71704 C2082.23966,3741.43168 2074.62805,3745.55178 2068.06291,3750.66531 C2066.25705,3748.89763 2064.20513,3747.36683 2061.90928,3746.15349 C2056.911,3743.51259 2051.49838,3742.06239 2045.8503,3741.80926 C2037.30748,3741.42673 2029.55446,3745.80067 2023.35133,3751.12915 C2015.95679,3757.48076 2009.58114,3765.15105 2003.36034,3772.61701 C2002.60448,3773.52418 2001.85428,3774.43842 2001.10337,3775.34983 C2000.6664,3775.3463 2000.22802,3775.3463 1999.78751,3775.3661 C1991.49924,3775.73731 1983.12329,3778.47932 1977.28854,3784.68528 C1961.61704,3801.35446 1947.4113,3819.69161 1935.30343,3839.10917 C1928.87687,3849.41684 1922.8696,3860.03703 1918.98284,3871.60894 C1916.82981,3878.01782 1915.55567,3885.24903 1915.88728,3891.97539 C1916.10365,3896.36276 1916.75698,3900.30679 1917.81546,3904.0981 C1916.54839,3907.67729 1915.07557,3911.20769 1913.84951,3914.6483 C1910.78648,3923.23991 1906.97537,3932.3901 1907.00012,3941.67676 C1907.02275,3950.61342 1910.51072,3958.44422 1916.53142,3964.95846 C1923.07819,3972.0433 1932.79474,3974.72663 1942.14928,3974.07471" id="mask-2"></path>
        </g>
    </g>
</svg>
